Coordinates
version=1
nRows=7
nColumns=40
inDegrees=yes

Units are S.I. units (second, meters, Newtons, ...)
Angles are in degrees.

endheader
time	pelvis_tilt	pelvis_list	pelvis_rotation	pelvis_tx	pelvis_ty	pelvis_tz	hip_flexion_r	hip_adduction_r	hip_rotation_r	knee_angle_r	knee_angle_r_beta	ankle_angle_r	subtalar_angle_r	mtp_angle_r	hip_flexion_l	hip_adduction_l	hip_rotation_l	knee_angle_l	knee_angle_l_beta	ankle_angle_l	subtalar_angle_l	mtp_angle_l	lumbar_extension	lumbar_bending	lumbar_rotation	arm_flex_r	arm_add_r	arm_rot_r	elbow_flex_r	pro_sup_r	wrist_flex_r	wrist_dev_r	arm_flex_l	arm_add_l	arm_rot_l	elbow_flex_l	pro_sup_l	wrist_flex_l	wrist_dev_l
     37.91800000	     -5.96290634	     -4.49704397	     -2.15937955	      0.88245927	      0.93244793	      0.43398236	     35.98209985	     -2.62044579	     -5.46551003	     54.52206325	     54.52206325	      2.19069382	    -17.91397387	      9.09258926	     13.77986005	     -4.48296527	     -5.22995467	     19.50073149	     19.50073149	     13.80275946	    -10.88709199	      0.97958771	    -11.33009813	      5.71738732	      1.69472441	      0.29493299	    -14.89727989	      1.36031126	     24.20724248	     46.85461057	      0.00000000	      0.00000000	      4.25505067	    -14.71664541	    -11.93475506	     73.96304418	     47.13467644	      0.00000000	      0.00000000
     37.93100000	     -6.07261509	     -4.45669939	     -2.60274798	      0.88126303	      0.93255264	      0.43471413	     36.07705015	     -2.42342711	     -5.52343557	     50.78196913	     50.78196913	      1.27124909	    -17.26524798	      5.38105921	     13.17764741	     -4.50257671	     -5.65146513	     18.98532565	     18.98532565	     13.89714064	    -10.80057768	      0.73438462	    -11.53188344	      5.66932303	      1.55091313	     -0.76866302	    -15.02036178	      0.32022680	     24.80357385	     46.88247186	      0.00000000	      0.00000000	      3.67084519	    -14.84084856	    -12.46277047	     77.04947245	     47.25509184	      0.00000000	      0.00000000
     37.94400000	     -6.14293081	     -4.52566731	     -3.00129701	      0.88018159	      0.93269689	      0.43555448	     35.98595547	     -2.10189895	     -5.67604473	     46.82179586	     46.82179586	      1.30462949	    -16.01383348	      4.62911489	     12.58549073	     -4.62435847	     -5.92811143	     18.58079532	     18.58079532	     14.06223083	    -10.85046075	      0.71240537	    -11.66043872	      5.82262454	      1.49964678	     -1.50373028	    -15.20761585	      0.10226465	     24.56008493	     46.89706898	      0.00000000	      0.00000000	      3.98228517	    -14.81739465	    -12.65415354	     77.68913233	     47.29315233	      0.00000000	      0.00000000
     37.95700000	     -6.33845598	     -4.54226443	     -3.37262062	      0.87918424	      0.93249393	      0.43642392	     35.86154514	     -1.86714917	     -5.97554633	     42.60194005	     42.60194005	      1.41588139	    -14.33638456	      4.11816855	     12.16070420	     -4.69270623	     -6.19124194	     18.23420537	     18.23420537	     14.25216955	    -10.88964458	      0.65740987	    -11.60889433	      5.94440225	      1.46097295	     -2.22161531	    -15.34558701	     -0.06765248	     24.40764923	     46.90606877	      0.00000000	      0.00000000	      4.16239132	    -14.81739484	    -12.74572648	     78.50643706	     47.32259617	      0.00000000	      0.00000000
     37.97000000	     -6.42145076	     -4.48147303	     -3.73626465	      0.87846147	      0.93223201	      0.43743075	     35.17371665	     -1.72836720	     -6.51207583	     37.59504649	     37.59504649	     -0.42470709	    -13.08597503	     -2.09564032	     11.57676960	     -4.67419656	     -6.48515705	     17.84186511	     17.84186511	     14.34659871	    -10.94135486	      0.32172384	    -11.72953285	      5.89454191	      1.40834666	     -3.01068386	    -15.31248504	     -1.63628294	     24.80405878	     46.95170708	      0.00000000	      0.00000000	      4.07489331	    -14.76282437	    -12.97776418	     80.23826581	     47.46090093	      0.00000000	      0.00000000
     37.98300000	     -6.54218718	     -4.41172656	     -4.05263836	      0.87783633	      0.93179340	      0.43852217	     34.60440600	     -1.61757967	     -7.24598310	     33.02473140	     33.02473140	     -0.10337206	    -10.39911816	     -2.02064381	     11.09294290	     -4.65741285	     -6.76298193	     17.56795920	     17.56795920	     14.56011038	    -10.92598469	      0.21759277	    -11.72912274	      5.86105666	      1.45199268	     -3.59194021	    -15.35237939	     -1.84667961	     24.65470087	     46.95781963	      0.00000000	      0.00000000	      4.28021913	    -14.74408114	    -12.80325777	     81.19558331	     47.48534021	      0.00000000	      0.00000000
     37.99600000	     -6.65277140	     -4.44090525	     -4.32140149	      0.87738963	      0.93125043	      0.43978858	     33.80527635	     -1.29594178	     -7.95658006	     28.31752006	     28.31752006	      0.05864001	     -7.88545721	     -1.52128680	     10.64683581	     -4.75055142	     -6.90416426	     17.41014442	     17.41014442	     14.81962812	    -10.99163208	      0.06330704	    -11.72716616	      5.97458555	      1.39966161	     -4.03658599	    -15.37537649	     -1.98371681	     24.58818761	     46.96138632	      0.00000000	      0.00000000	      4.44669358	    -14.67496148	    -12.66210501	     81.93301725	     47.49945452	      0.00000000	      0.00000000
